<svg id="Layer_1" data-name="Layer 1" xmlns="http://www.w3.org/2000/svg" viewBox="0 0 767.29464 685.40855">
  <defs>
    <style>
      .cls-1 {
        fill: #020202;
      }

      .cls-2, .cls-5 {
        fill: none;
      }

      .cls-3 {
        fill: #801d0a;
      }

      .cls-4 {
        fill: #5a1414;
      }

      .cls-5 {
        stroke: #020202;
        stroke-linecap: round;
        stroke-linejoin: round;
        stroke-width: 0;
      }

      .cls-6 {
        fill: #ea5c5a;
      }

      .cls-7 {
        fill: #fff;
      }

      .cls-8 {
        fill: #f52f14;
      }

      .cls-9 {
        fill: #fad620;
      }
    </style>
  </defs>
  <title>pikachu-001</title>
  <path class="cls-1" d="M602.61441,332.97772c10.50823,0,20.89472-.53576,31.07415-1.49775,77.70968-7.30582,142.45148-38.87917,143.26728-39.281l6.75788-3.3485-7.184-2.28917c-32.98585-10.50814-62.18479-16.32849-87.5604-19.06818-37.46667-4.05475-66.60475-1.4368-87.2681,2.66663-31.0011,6.13687-48.85164,16.40155-54.72067,20.225-.24354-.21917-.487-.43834-.74274-.63313-.48708-.38965-.92541-.76711-1.37593-1.07152s-.86455-.59671-1.22983-.84018c-.38965-.21916-.73055-.414-1.01066-.57232-.42614-.21917-.71837-.36528-.84017-.42615h-.02431c-.02437-.02437-.03656-.02437-.03656-.02437-28.651-20.03017-62.03868-26.32534-85.79474-27.99349a226.76005,226.76005,0,0,0-43.67667,1.05933.43439.43439,0,0,0,.04867-.10962c.23136-.58444.45053-1.1202.6332-1.58291.17041-.4992.31652-.93753.43833-1.29069.12174-.38966.207-.70625.26785-.91323.06094-.21917.08524-.3409.08524-.3409l-.0243-.01219c5.72284-16.499,17.1078-54.23365,22.55061-106.06844a555.707,555.707,0,0,0,2.21611-87.58471l-.03649-.3166A5.04864,5.04864,0,0,0,433.33833,57h-.01211c-12.61479.02438-51.59132,51.847-62.18479,119.6817q-.78537,5.02277-1.47337,9.82628c-7.9877,55.58521-6.96485,89.32592-6.18562,101.07615.01219.09743.01219.21917.02437.37747,0,.04868.01219.10962.01219.17049,0,.04867.01219.10954.01219.1826.07306,1.10809.14611,1.98475.207,2.63014-11.21448,14.13676-14.62385,29.01633-17.36353,41.02223-1.4733,6.44128-2.75188,12.00589-4.90705,15.86579-5.16284,9.22971-12.98006,30.03918-16.51117,39.71935-4.17656-4.12774-11.64061-10.04552-22.916-18.66634-4.6027-3.519-9.82634-7.51288-10.80044-8.57222-.32879-.57226-1.29069-2.59358-3.45813-9.14448a6.0629,6.0629,0,0,0-9.15666-3.11715l-7.13534,4.83406-1.05934-.48708-9.61937-4.45652a3.93968,3.93968,0,0,0-3.76246.25573c-.01219.01211-.02438.01211-.03657.0243,7.56156-22.67242,13.30885-38.73307,13.46708-39.18359l1.29069-3.60423-3.799-.45052c-57.93517-6.86743-241.93253,74.17857-249.73756,77.62443l-1.81427.80368V385.397c0,34.59307,45.92928,125.42892,47.88973,129.27662l2.557,5.041,2.80055-4.90712c12.63909-22.17314,82.7994-63.64589,103.02435-75.28651L153.86607,562.02762l67.1527-39.51238-1.19326,10.24031-7.87808,67.95638L257.134,578.59965c.08525,5.19934.10955,10.02114.0243,11.61625-12.94342,21.11387-24.97369,40.92487-28.992,53.844-7.391,23.76832,8.84007,41.144,17.57059,48.4498-18.38638,6.85531-44.95526,28.07873-45.23529,28.31009a8.45977,8.45977,0,0,0-3.22677,6.00294,9.85988,9.85988,0,0,0,1.2542,5.248,13.40886,13.40886,0,0,0,1.14458,1.77778c1.40024,4.31041,6.79445,4.88274,10.496,4.73663a23.41678,23.41678,0,0,0,2.618-.23135c27.21418,6.46565,81.046-20.98,89.27717-25.29037.94979.17048,2.00913.3166,3.14152.414,21.5887,2.02124,73.63062-7.92684,83.96836-9.97246,11.55537,10.97093,57.60646,15.08648,70.6352,16.04846.03649.207.08517.414.13392.621.79142,3.14145,3.39719,6.68482,9.7776,8.353,3.55555.92541,12.23732,1.88732,23.22037,3.09277,18.155,2.00913,43.03136,4.761,52.17584,8.4626a27.86522,27.86522,0,0,0,10.41079,2.32573c5.84465,0,9.13228-2.72757,10.76388-4.73663a7.54971,7.54971,0,0,0,6.02732-2.16743,8.31747,8.31747,0,0,0,2.14306-5.10191,13.1748,13.1748,0,0,0-.23136-3.81121c-2.73968-13.55232-26.17922-20.3345-36.95529-22.74547l.03649-.10955c4.9558-6.94055,13.601-22.27065,13.601-44.663,0-21.13825-13.96627-35.64029-25.18075-47.2931-5.2845-5.47937-9.83846-10.216-11.77454-14.429-4.9801-10.92225,1.80208-31.37856,3.90865-37.15015a.95967.95967,0,0,1,.04868-.10962c56.46187-13.881,106.50685-63.17107,114.08052-70.89086h7.18409a5.432,5.432,0,0,0,4.90705-7.78072c-.60882-1.25421-1.07153-2.24049-1.43681-3.00761.1583-.0243.32879-.06087.4992-.08517a4.17869,4.17869,0,0,0,2.91018-6.16125l-1.75341-3.12933,3.26327-3.62862a4.17907,4.17907,0,0,0-.10955-5.71072l-4.4566-4.57826,2.45965-2.10656a4.17677,4.17677,0,0,0-2.47176-7.34232l-8.66965-.49928-2.61788-16.292-9.70462,10.60565c-20.90682-1.2785-43.39656,5.175-52.94288,8.3408.07306-.73056.14611-1.53417.207-2.38653.03656-.37746.073-.75493.08524-1.12028a106.16283,106.16283,0,0,0-.3166-19.79873c-1.82645-14.62385,5.23591-41.8746,7.43983-49.87449,3.43375-12.44422.17041-32.998-1.64386-42.32511-.03649-.1826-.073-.40184-.12173-.6575v-.02438C584.04543,332.5515,593.37258,332.97772,602.61441,332.97772ZM242.4005,393.72563c2.31354,22.83072,9.77767,46.95213,18.16721,68.15125L220.7753,480.592C223.30794,459.673,232.562,425.83474,242.4005,393.72563ZM257.57229,539.136c.13393-.36535.26792-.74281.414-1.12028,2.11868-5.72291,4.8218-13.053,7.51281-20.39544,3.37288-9.20534,6.74569-18.41068,8.93742-24.42581,7.8416,16.085,14.46555,27.38467,16.1459,30.22178.01219.1583.01219.32879.01219.49928.073,2.87361-.98629,6.80655-2.83712,11.4945-3.09278.73056-10.54472,2.50834-17.99666,4.33479-5.662,1.37587-10.17943,2.50833-13.41839,3.34851-.09743.0243-.1826.04868-.26785.07305C256.513,541.96089,257.02434,540.60933,257.57229,539.136Z" transform="translate(-16.41907 -57)"/>
  <path class="cls-2" d="M493.96459,425.4086v-.01219h-.02438Z" transform="translate(-16.41907 -57)"/>
  <path class="cls-2" d="M253.10358,550.046a3.057,3.057,0,0,0,.86448-1.4368A6.48411,6.48411,0,0,1,253.10358,550.046Z" transform="translate(-16.41907 -57)"/>
  <path class="cls-2" d="M494.00108,425.42079c-.01219,0-.02431,0-.02431-.01219l.02431.02438Z" transform="translate(-16.41907 -57)"/>
  <path class="cls-2" d="M370.5691,301.00253c.03657-.14611.07306-.29222.09743-.42622.03649-.17041.08525-.3166.12174-.43833a.78775.78775,0,0,0-.19479.21917c-.14611.21916-.12174.23135-.13392.25573a1.05856,1.05856,0,0,0-.04876.43833c.03657.14611.04876.17049.06094.17049s.02431-.02438.03649-.02438A1.87768,1.87768,0,0,0,370.5691,301.00253Z" transform="translate(-16.41907 -57)"/>
  <path class="cls-3" d="M263.13691,573.69254c.04868,2.52052.09743,4.688.12173,6.56308,8.09733-13.2844,16.15809-26.86109,21.4061-37.85632-12.773,3.05628-28.82147,6.98923-31.91432,7.9877a2.27816,2.27816,0,0,1-1.522.51139,4.24735,4.24735,0,0,1-.74274-.07306l-2.50833-2.99542a2.73556,2.73556,0,0,1,.56014-1.96038c.25566-.64531.6575-1.729,1.19326-3.15364l-1.58291,1.02278-3.99389-4.9558-6.10031,8.75482-2.75187-6.61176-4.347,15.951-6.17343-13.89322-5.50375,47.354,43.76192-21.4061Z" transform="translate(-16.41907 -57)"/>
  <path class="cls-4" d="M492.32073,428.50137l-.09736-.04867-.207-.12174-.35309-.19486-1.36375-.80361c-1.83864-1.04723-3.64072-2.13087-5.455-3.21458-3.60424-2.19174-7.19629-4.42-10.73958-6.697q-4.80359-3.08673-9.53413-6.25868c-1.96038.341-3.92076.65757-5.88121.97409-1.19326.21917-2.39871.30441-3.60416.43841L451.469,412.94c-1.19326.14611-2.42308.12173-3.64072.19479l-3.64073.10962-3.6651-.12181-1.82646-.07306c-.60882-.04868-1.22983-.13392-1.83864-.207-1.21764-.14611-2.43528-.24354-3.65292-.45052l-3.62854-.74274c-.92541-.21916-1.82645-.51146-2.73968-.80368q-.38359,3.79906-.66969,7.36677a62.93875,62.93875,0,0,1,18.04541-3.032,61.57094,61.57094,0,0,1,20.712,3.239,29.74186,29.74186,0,0,1,5.78378,2.64225c9.74111,5.73511,15.28142,11.92065,18.22808,16.13371,1.64379-3.05629,3.08059-5.869,4.27393-8.29211l-.70626-.32879Z" transform="translate(-16.41907 -57)"/>
  <path class="cls-5" d="M563.29691,443.41744a17.01258,17.01258,0,0,1-.12181,1.70472" transform="translate(-16.41907 -57)"/>
  <path class="cls-1" d="M528.44811,371.35762A21.29043,21.29043,0,1,0,549.74459,392.642,21.30615,21.30615,0,0,0,528.44811,371.35762Zm1.98475,26.89766a10.86749,10.86749,0,0,1-5.00455-20.51724,16.38624,16.38624,0,0,1,3.0198-.29223,15.22438,15.22438,0,0,1,12.11544,6.01514,10.73626,10.73626,0,0,1,.73062,3.92083A10.88171,10.88171,0,0,1,530.43286,398.25528Z" transform="translate(-16.41907 -57)"/>
  <path class="cls-5" d="M541.72032,286.817s.01219,0,.03656.02437" transform="translate(-16.41907 -57)"/>
  <path class="cls-1" d="M503.29166,427.29592a27.09474,27.09474,0,0,1-6.03944-.51138,10.34913,10.34913,0,0,1-2.42316-.828l-.66969-.42622-.14611-.08524V425.433h-.01218l-.02431-.02438h-.01218l-.02438-.01219h.02438l-.30441-.24354-1.242-.98628c-1.64378-1.32719-3.32413-2.60569-4.99229-3.89646-3.36069-2.54482-6.73357-5.06534-10.15513-7.525q-5.11405-3.70764-10.31336-7.28145l-.98628-.68187-1.30289.207c-2.28916.36528-4.57833.76712-6.86749,1.169-1.14459.23136-2.30136.30441-3.44594.48709l-3.44586.46263c-1.14459.17049-2.28917.21924-3.44594.341l-3.44594.30441-3.43374.13392-1.729.073c-.57233.01219-1.13239-.0243-1.70472-.0243-1.14459-.03656-2.28917-.03656-3.43375-.07305l-3.40937-.2923c-1.1324-.09736-2.24042-.31652-3.37281-.47482s-2.20392-.49927-3.312-.74282c-1.09582-.31652-2.17954-.6575-3.23888-1.04715a26.44413,26.44413,0,0,1-3.09285-1.449,10.12921,10.12921,0,0,1-1.48548-.87666,11.5066,11.5066,0,0,1-1.42462-.99848c-.962-.65757-1.79-1.54642-2.73968-2.26479.68187.98629,1.2785,2.00906,2.05781,2.95886a16.36056,16.36056,0,0,0,1.22975,1.36374,14.59393,14.59393,0,0,0,1.33945,1.26632,23.03988,23.03988,0,0,0,2.99534,2.19174c.57233.341,1.13247.65757,1.71691.97417-.40184,3.76246-.74274,7.36669-.99847,10.81255-4.01819,51.79838,6.46565,69.08886,16.36506,74.32469a14.44078,14.44078,0,0,0,6.61176,1.64378c.32879.02437.66969.03656,1.01067.03656,17.65575,0,38.34341-33.16845,48.96118-52.63855,3.53118-6.47777,5.94208-11.43356,6.75795-13.15047.19479-.01219.37746-.03649.57225-.04868a25.33807,25.33807,0,0,0,3.21459-.57233,36.16942,36.16942,0,0,0,6.11256-1.97257C507.46815,427.13763,505.36166,427.27155,503.29166,427.29592Zm-59.21375,61.90476c-.25566,0-.4992-.01219-.74274-.02438l-.25573-.01218a8.35688,8.35688,0,0,1-3.88427-.93753c-5.34537-2.81282-16.48679-14.58736-13.50357-63.45119a1.19479,1.19479,0,0,0,.19479-.06086,56.03705,56.03705,0,0,1,37.10148-.52358,23.94062,23.94062,0,0,1,4.627,2.11868c11.4945,6.77007,16.38943,14.13676,17.948,16.98607C474.19015,463.39893,456.68051,489.20068,444.07791,489.20068Zm44.85782-52.00535c-2.94666-4.21306-8.487-10.3986-18.22808-16.13371a29.74186,29.74186,0,0,0-5.78378-2.64225,61.57094,61.57094,0,0,0-20.712-3.239,62.93875,62.93875,0,0,0-18.04541,3.032q.29219-3.56162.66969-7.36677c.91323.29222,1.81427.58452,2.73968.80368l3.62854.74274c1.21764.207,2.43528.30441,3.65292.45052.60881.07306,1.22982.1583,1.83864.207l1.82646.07306,3.6651.12181,3.64073-.10962c1.21764-.07306,2.44746-.04868,3.64072-.19479l3.61643-.36528c1.20545-.134,2.4109-.21924,3.60416-.43841,1.96045-.31652,3.92083-.63312,5.88121-.97409q4.73058,3.178,9.53413,6.25868c3.54329,2.277,7.13534,4.50527,10.73958,6.697,1.81427,1.08371,3.61635,2.16735,5.455,3.21458l1.36375.80361.35309.19486.207.12174.09736.04867.18267.07306.70626.32879C492.01632,431.3263,490.57952,434.139,488.93573,437.19533Z" transform="translate(-16.41907 -57)"/>
  <path class="cls-6" d="M467.61488,426.30964a23.94062,23.94062,0,0,0-4.627-2.11868,56.03705,56.03705,0,0,0-37.10148.52358,1.19479,1.19479,0,0,1-.19479.06086c-2.98322,48.86383,8.1582,60.63837,13.50357,63.45119a8.35688,8.35688,0,0,0,3.88427.93753l.25573.01218c.24354.01219.48708.02438.74274.02438,12.6026,0,30.11224-25.80175,41.48494-45.905C484.00431,440.4464,479.10938,433.07971,467.61488,426.30964Z" transform="translate(-16.41907 -57)"/>
  <path class="cls-1" d="M477.74564,391.54609c-2.63014,0-14.89169-3.88427-14.44117-3.12934C468.796,397.683,473.20387,394.164,477.74564,391.54609Z" transform="translate(-16.41907 -57)"/>
  <path class="cls-1" d="M394.83662,333.91525a24.42582,24.42582,0,1,0,24.42582,24.42582A24.44742,24.44742,0,0,0,394.83662,333.91525Zm2.31354,30.46533a12.21539,12.21539,0,0,1-1.37593-24.35276h.02437a18.289,18.289,0,0,1,10.34993,3.89645c.01219,0,.0243.01219.03649.0365a12.20533,12.20533,0,0,1-9.03486,20.41981Z" transform="translate(-16.41907 -57)"/>
  <g>
    <path class="cls-7" d="M519.55929,387.38178a10.86744,10.86744,0,1,0,21.73488,0,10.73626,10.73626,0,0,0-.73062-3.92083,15.22438,15.22438,0,0,0-12.11544-6.01514,16.38624,16.38624,0,0,0-3.0198.29223A10.88019,10.88019,0,0,0,519.55929,387.38178Z" transform="translate(-16.41907 -57)"/>
    <path class="cls-7" d="M384.93722,352.16763a12.21291,12.21291,0,1,0,21.2478-8.20686c-.01219-.02431-.0243-.0365-.03649-.0365a18.289,18.289,0,0,0-10.34993-3.89645h-.02437A12.2311,12.2311,0,0,0,384.93722,352.16763Z" transform="translate(-16.41907 -57)"/>
  </g>
  <g>
    <path class="cls-8" d="M563.29691,443.41744a2.34477,2.34477,0,0,0,.01218-.29222c.03649-4.40784-1.54642-7.26926-4.51746-7.96333-5.08972-1.19333-15.05,3.76246-20.28582,18.17933-2.92236,8.06076-3.22677,14.636-.90111,19.54308a13.15715,13.15715,0,0,0,5.50374,5.90559c1.61948-1.50993,3.16583-3.00761,4.60271-4.54184.87667-.94972,1.76552-1.86295,2.557-2.82493.80361-.94972,1.60729-1.86295,2.30136-2.80055.73055-.93761,1.449-1.82646,2.05781-2.73969.63312-.91323,1.30288-1.74121,1.82645-2.61788.54788-.86455,1.07153-1.69253,1.57073-2.47184q.67578-1.22368,1.27851-2.30135c.81587-1.43681,1.35156-2.77618,1.89951-3.8234.68187-1.6316,1.13239-2.73969,1.31507-3.19021.12173-.85229.40184-3.12926.64538-6.22211,0-.04868.01212-.09743.01212-.13393A17.01258,17.01258,0,0,0,563.29691,443.41744Z" transform="translate(-16.41907 -57)"/>
    <path class="cls-8" d="M366.417,422.82721c6.80655-12.85825,2.64225-25.86262-3.00761-33.10758-5.32107-6.81875-12.54166-9.88722-19.31172-8.20687a13.974,13.974,0,0,0-5.16277,2.69093c-2.86142,2.26487-7.96333,7.0258-9.9116,13.62538l-.073-.02431v.1583c0,2.59358.14611,6.31955.548,10.78826.207,2.2283.51139,4.627.901,7.17191.35309,2.53263.86455,5.18707,1.46118,7.91464.57226,2.47177,1.169,5.02885,1.92389,7.57368a.01189.01189,0,0,0,.01211.01219c2.11876,2.31354,7.15972,6.94055,13.47927,6.68482C353.74133,437.8772,360.18269,432.73881,366.417,422.82721Z" transform="translate(-16.41907 -57)"/>
  </g>
  <path class="cls-5" d="M363.519,288.13209c0-.06087-.01219-.12181-.01219-.17049" transform="translate(-16.41907 -57)"/>
  <g>
    <path class="cls-9" d="M563.34558,314.48179c.29223.19479.621.38958.98629.6575a11.87684,11.87684,0,0,1,1.15677.93761,17.33281,17.33281,0,0,1,2.44746,2.64225c.77931,1.04715,1.61948,2.16736,2.37441,3.33632.66969,1.05934,1.32719,2.13086,1.88733,3.1902a298.60008,298.60008,0,0,0,59.71295.29222,106.96547,106.96547,0,0,0,55.25642-52.12708c-35.93251-3.77465-63.90163-1.27851-83.82217,2.63014-28.785,5.63767-46.06327,15.09867-52.24889,18.97075.21916.2801.414.56014.60882.84017.38965.57233.76711,1.13239,1.0959,1.69253a17.11709,17.11709,0,0,1,.86448,1.69254,14.91208,14.91208,0,0,1,.621,1.60729c.18268.4992.28.99847.40184,1.41243.07306.45052.1583.828.19479,1.15677a5.90754,5.90754,0,0,1,.061,1.035,25.58088,25.58088,0,0,1-3.00761-1.92381c-.828-.59663-1.74121-1.30288-2.64225-2.09438-.86455-.74274-1.7291-1.54635-2.65445-2.28916l-.02437.01218-1.85084-1.47337q-2.0639-1.64374-4.1643-3.20232c-.32878-.24354-.63319-.4627-.88885-.63319-.134-.09743-.24354-.17049-.35316-.24354s-.19479-.14611-.28-.207-.15829-.12181-.207-.1583c-51.54265-36.49265-121.04545-27.10464-129.90982-25.7287-.24354.43833-.48709.86455-.74274,1.30288-.84018,1.41243-1.68035,2.81274-2.5449,4.09125a30.059,30.059,0,0,1-2.64225,3.3485,23.47065,23.47065,0,0,1-2.26487,2.17955c-.29222.24354-.53576.4384-.71836.56014-.17049.12173-.26792.19486-.26792.19486s0-.12181-.01212-.32878c-.01218-.21917,0-.53577.01212-.92542a24.75714,24.75714,0,0,1,.341-3.105,32.10576,32.10576,0,0,1,1.01066-4.12781c.46271-1.46119,1.035-2.99542,1.6073-4.51747,1.1445-3.03191,2.45957-5.99076,3.49461-8.13381.52358-1.08364.9741-1.94819,1.27851-2.53264.13392-.26792.25565-.47489.32871-.621.01219-.02438.02437-.03657.02437-.04876.01219-.01211.02438-.0243.02438-.03649,5.43062-15.61013,16.34068-51.494,21.88092-101.0031a11.70256,11.70256,0,0,0-8.79131-2.53263c-18.21589,1.74121-42.19119,34.44695-45.57619,39.18359-7.41545,52.62628-6.56308,85.52689-5.869,97.24056a.09385.09385,0,0,0,.01219.03649c.03649.17049.23135.92542.51138,2.08219.3409,1.37594.7915,3.21458,1.242,5.041.23135.96191.46271,1.92381.68187,2.81274a11.38059,11.38059,0,0,1,.43834,2.557,4.50592,4.50592,0,0,1-.03657,1.035c-.01211.01219-.03649,0-.06087-.0243a1.48085,1.48085,0,0,0-.24354-.18267l-.04868-.03649a1.10826,1.10826,0,0,0-.63319-.134,3.49558,3.49558,0,0,1,.38965.18267c.12181.07306.25573.1583.40184.24355a.81444.81444,0,0,1,.21917.19479c.04868.08524.08524,0,.1583.36527a1.00659,1.00659,0,0,1-.04868.46271c-.01219.02438.01211.03657-.134.26792a1.1437,1.1437,0,0,1-.75493.46271,1.10016,1.10016,0,0,1-.69406-.13392l-.04868-.03657a1.54962,1.54962,0,0,1-.29222-.23135.79838.79838,0,0,0-.12174-.10962c-.04875-.03649-.09743-.06087-.14618-.09736-.3409-.23135-.58444-.43833-.901-.69406a9.108,9.108,0,0,1-1.80208-2.15525c-.3166-.4627-.621-.9619-.92542-1.47329-8.94961,12.38336-11.945,25.48516-14.39249,36.20036-1.57073,6.8918-2.93448,12.85825-5.51586,17.47308-3.60424,6.45346-8.75482,19.31179-12.61479,29.44248.35316-.30441.682-.57226.99847-.8158a19.78845,19.78845,0,0,1,7.45194-3.8234c9.181-2.28917,18.73947,1.5951,25.58259,10.36211a36.73035,36.73035,0,0,1,3.53118,39.81678l-.10962.19479c-7.40319,11.79892-15.53707,17.92368-24.18228,18.2159-.21916.01219-.43833.01219-.64531.01219a20.5146,20.5146,0,0,1-9.388-2.36223c.37746.93761.79149,1.87514,1.18107,2.81275.6332,1.33937,1.21764,2.691,1.87521,3.99388,1.315,2.60569,2.73969,5.114,4.18868,7.48844,1.4368,2.3744,2.971,4.59051,4.49309,6.64833.79142,1.01058,1.54635,1.99694,2.28916,2.94666.77924.91323,1.54635,1.79,2.277,2.64225.70618.86455,1.48548,1.6073,2.15517,2.37441.68187.76712,1.26639,1.55862,1.8874,2.2283,1.20545,1.37594,2.15517,2.7275,2.971,3.81122a26.60425,26.60425,0,0,1,2.39871,3.71378,23.6394,23.6394,0,0,1-4.20087-1.53424,31.57953,31.57953,0,0,1-4.3226-2.58139,39.13313,39.13313,0,0,1-4.89493-4.26173c-.81579-.86455-1.66815-1.76559-2.557-2.691-.84017-.97409-1.70472-1.97256-2.60576-3.00753-1.729-2.10649-3.49462-4.39565-5.175-6.86749a88.52136,88.52136,0,0,1-4.77312-7.85379c-.75493-1.37593-1.42462-2.80055-2.15525-4.213-.64531-1.449-1.33937-2.88579-1.94819-4.347-1.20545-2.94667-2.31354-5.9299-3.21458-8.92531-.03649-.09743-.06087-.207-.09743-.30441-.901-2.8858-1.656-5.75941-2.26479-8.56-.59663-2.91017-1.12021-5.74729-1.48548-8.4383-.37747-2.70312-.59671-5.26013-.75493-7.63454-.18268-2.36222-.21924-4.54184-.23136-6.47784.01212-1.93608.0243-3.61643.12174-5.01666.08524-1.38813.18267-2.484.25573-3.25108a2.84359,2.84359,0,0,0,.0243-.29229c-2.49614-3.7016-17.24173-14.96475-24.49888-20.51718-9.05923-6.92836-11.43364-8.81569-12.23724-10.11857-.341-.54795-1.36375-2.2283-4.11563-10.5326l-9.93589,6.78226-.14611-.06087-8.4626,5.44288,4.15211-7.452-6.283-2.9101v6.33166l-7.6468-1.77771-.23136,8.27993-2.78836-.17049-4.57833-.28-.91323,7.28145-3.73816,1.7291-2.52052,1.16888,1.85083.92542,5.56462,2.77625,1.4368.71837.06087,1.81427c.87674,26.49581,10.36211,56.29146,20.72423,81.33821,3.08058,7.46413,6.2343,14.50211,9.27839,20.9069,9.72892,20.60242,18.13065,34.60526,18.32544,34.934l.06087.10955.26792.42622.08524.60882v.01218c.14611.42615.3166.96191.4992,1.58292.48709,1.58291,1.09591,3.67722,1.61948,5.80808a52.75779,52.75779,0,0,1,1.14458,5.90559,18.14476,18.14476,0,0,1,.1583,1.97257c0,.46271.01219.73055.01219.73055s-.09743-.24354-.26792-.68187a16.44756,16.44756,0,0,0-.81579-1.74121,47.71534,47.71534,0,0,0-3.01972-4.9558l-.14619-.21917a71.15736,71.15736,0,0,1-3.98163,11.05618c-6.06388,13.83235-16.98606,31.6464-28.31008,50.11795l-.69407,1.1324-.073.10962c-12.32249,20.1154-24.87634,40.73-28.71193,53.04031-8.19468,26.374,17.30267,43.50619,19.88405,45.16223.01219,0,.02438.01212.03649.01212.35317.1583.9498.4384,1.69254.84017,1.19326.6332,2.75187,1.5708,4.27392,2.59358,1.522,1.035,3.00753,2.14305,4.09125,3.04409.54795.45052.97409.86455,1.29069,1.1324.3166.2801.48709.45052.48709.45052s-.24355.01219-.66969-.01212c-.414-.02437-1.01066-.02437-1.71691-.08524-1.40024-.10962-3.23889-.341-5.05316-.64538-1.80215-.32872-3.56774-.73056-4.87055-1.108-.46271-.13392-.87674-.25573-1.20552-.36528-13.97847,3.105-41.20484,23.08637-47.8166,28.60231a3.25484,3.25484,0,0,0-.85236.99847c.04867-.03656.09743-.08524.14611-.12181a56.75839,56.75839,0,0,1,10.31343-5.9177c3.81114-1.76559,7.67111-3.3485,10.63-4.39566,2.75187-1.01066,4.67569-1.58291,4.907-1.64385-.19479.12181-1.9117,1.169-4.40784,2.691-2.63007,1.64378-6.16125,3.799-9.50976,6.17343-1.66815,1.169-3.29975,2.39871-4.74874,3.592a35.56312,35.56312,0,0,0-3.65291,3.385,13.61857,13.61857,0,0,0-1.1324,1.38813,5.08824,5.08824,0,0,0-.28011.43833,13.403,13.403,0,0,0,4.78531.36528,7.63047,7.63047,0,0,1,.64539-.901c.26784-.30441.54795-.56007.85236-.86448a18.3848,18.3848,0,0,1,1.96038-1.49775,69.39217,69.39217,0,0,1,10.48385-5.29669c7.43975-3.15372,15.05-5.67424,15.51269-5.82035-.42614.24355-7.46412,4.12781-14.07589,8.49917a67.73833,67.73833,0,0,0-8.51128,6.42909c22.48982,2.7275,62.25785-15.61013,77.00343-22.916-1.43681-.53576-2.93448-1.12021-4.42-1.729-1.85076-.74274-3.6651-1.54642-5.38194-2.28916-1.69253-.75493-3.26326-1.52205-4.57833-2.2526a34.72443,34.72443,0,0,1-4.27392-2.67882,44.13882,44.13882,0,0,1,5.00455.58444c1.47329.24354,3.16583.59663,4.96791,1.01066s3.71386.86455,5.62548,1.31507c3.81122.87667,7.61024,1.76552,10.47174,2.42309,2.45957.548,4.20086.94972,4.60263,1.035a.13251.13251,0,0,0,.06094.01219c22.68453,1.85083,82.4828-10.17944,83.12811-10.31336l1.93607-.38965.06087.08524c1.02285-.134,2.47177-.30441,4.21306-.45052.87666-.09743,1.83857-.14618,2.84923-.207s2.08219-.13392,3.1902-.1583c2.21611-.06087,4.57834-.09736,6.94056-.01219,2.37441.04876,4.74881.1583,6.977.37754a29.97471,29.97471,0,0,1,6.08819.9984,14.685,14.685,0,0,1,2.3866.85236,12.28648,12.28648,0,0,1,1.78989.87674,14.397,14.397,0,0,1,1.46118,1.01058,15.35055,15.35055,0,0,1-1.70465.42622c-.52357.10955-1.14458.23136-1.863.37747s-1.50986.24354-2.37441.37746c-.86448.12174-1.78989.19479-2.77618.29222-.98628.06087-2.02132.12174-3.09284.18268-2.15517.13392-4.45653.28-6.75788.42614-1.14458.08525-2.30128.17049-3.43375.25573-1.13239.07306-2.24041.13393-3.32413.207-.901.08525-1.76559.10962-2.59357.1583,13.942,5.74722,43.96889,9.55843,63.378,10.78826h.04875a33.59524,33.59524,0,0,1,3.92076.06086,67.90748,67.90748,0,0,1,8.53566,1.21764c.7793.1583,1.55861.29222,2.31354.4749.76712.1583,1.50986.32878,2.24041.48708,1.449.35309,2.81274.68188,3.96951.99848,2.32566.60881,3.89646,1.14458,3.89646,1.14458a34.19711,34.19711,0,0,1-3.95732,1.01058c-1.19327.24355-2.59358.46271-4.09125.66969-1.48556.18268-3.08066.37747-4.67576.4749a56.82075,56.82075,0,0,1-8.45042.09743,8.95841,8.95841,0,0,0,4.4809,2.32566c3.12934.81587,12.04246,1.80215,22.35582,2.93455,19.54315,2.16735,43.85935,4.84617,53.79532,8.87655,6.92837,2.80055,10.72739,1.94827,12.7.74274-1.96045-1.20545-4.56614-2.80055-7.1841-4.39565-1.30288-.79142-2.61795-1.58292-3.8477-2.32566-1.22983-.71844-2.3866-1.40031-3.36069-2.00913-.98629-.59663-1.80216-1.108-2.3866-1.449-.58444-.3044-.96191-.49919-.96191-.49919a7.0512,7.0512,0,0,1,1.12021-.14611,12.01715,12.01715,0,0,1,1.29069.0243c.48709.04875,1.035.134,1.63167.21916a32.04153,32.04153,0,0,1,3.92076.99848c1.4125.42621,2.91017.901,4.37135,1.4368,1.4733.51146,2.93448,1.07153,4.286,1.60729,1.36375.548,2.63014,1.035,3.70167,1.50986,1.35156.58452,2.4109,1.05941,3.00753,1.33945a2.97639,2.97639,0,0,0,.63319.07305c-.14611-.09743-.29222-.207-.45052-.30441-1.0959-.74274-2.44746-1.64378-3.94513-2.54489-1.49775-.91323-3.14153-1.82646-4.78531-2.78837-1.656-.92542-3.312-1.85083-4.87056-2.7275-1.55861-.86455-3.04409-1.63166-4.27392-2.38659a33.83668,33.83668,0,0,1-2.93455-1.94819c-.3409-.25574-.60882-.46271-.79142-.59664a1.66468,1.66468,0,0,0-.30441-.21916,7.29337,7.29337,0,0,1,1.40024.0243,24.4678,24.4678,0,0,1,3.50681.60882c1.42461.341,3.01979.86455,4.74882,1.42462,1.71683.56014,3.54329,1.20552,5.36975,1.88739,1.81427.6575,3.61642,1.41243,5.29677,2.15517,1.1202.49928,2.19173.97417,3.178,1.47337-4.66358-8.81569-25.04683-14.58728-34.447-16.46249a24.44561,24.44561,0,0,1-3.54337,2.19181c-1.108.57225-2.26479,1.05934-3.33632,1.49767-1.10809.414-2.14305.76712-3.06847,1.02277a20.213,20.213,0,0,1-3.178.65758,28.06,28.06,0,0,1,1.80208-2.66663c.56014-.76712,1.242-1.59511,1.97257-2.484.75493-.85229,1.53424-1.77771,2.33792-2.64226a58.30054,58.30054,0,0,1,4.38347-4.31041c.28-.25573.51139-.4749.69406-.621a.5321.5321,0,0,0,.08524-.073c3.94514-5.15059,13.64968-20.1276,13.64968-42.666,0-18.6786-13.01648-32.20654-23.476-43.06793-5.67417-5.88114-10.55691-10.95874-12.91913-16.12151-6.91617-15.12305,3.90857-42.3738,4.37128-43.51838l.59663-1.4733.19487-.04875a59.92989,59.92989,0,0,1,3.6651-6.34385c.73055-1.14458,1.57073-2.22829,2.33784-3.25114.40185-.4992.84018-.96191,1.22983-1.41243.45052-.414.85236-.8158,1.27851-1.14458a11.78066,11.78066,0,0,1,1.242-.84018c.414-.207.77923-.35309,1.07153-.47489a4.78239,4.78239,0,0,1,1.02277-.13393s-.19479.29223-.52357.79142c-.13393.25574-.26785.59671-.43834.91323-.14611.35317-.31659.76712-.49927,1.20553s-.36528.91323-.57225,1.41242-.40184,1.035-.64539,1.57073c-.46271,1.09591-.901,2.30136-1.35156,3.49469-.30441.828-.60882,1.66816-.901,2.47177,56.69323-15.81711,107.46876-68.49215,107.99233-69.0401l.901-.94972h8.74264c-2.32566-4.87055-2.44747-5.32107-2.53264-5.68642a3.268,3.268,0,0,1,.42615-2.557c.59663-.91323,1.53423-1.48549,3.44593-1.98476l-1.15677-2.05781a4.174,4.174,0,0,1,.52358-4.834l2.99542-3.3242-4.62709-4.76093a4.15861,4.15861,0,0,1,.28011-6.076l.40177-.35316-4.91924-.28c-.17048.68187-.36527,1.38812-.57225,2.09437-.52365,1.81427-1.12028,3.62854-1.63167,4.94361-.51139,1.32719-.92542,2.16736-.92542,2.16736s.03657-.93761-.01218-2.32566c-.04868-1.37593-.21917-3.21458-.46271-5.02885-.23136-1.82646-.53577-3.64073-.77923-4.98017-.24355-1.36375-.42622-2.2283-.42622-2.2283h.09743l-.57225-3.56767-3.21459,3.5068-1.47337-.12173c-22.89158-1.82646-49.25347,6.92836-55.21986,9.03485h-.01219c-.25573.6332-.58444,1.46118-.99847,2.484-.59663,1.16889-1.242,2.64226-2.143,4.213-.45052.7915-.93761,1.63167-1.449,2.52052-.548.85236-1.1324,1.7534-1.74122,2.67882a60.28877,60.28877,0,0,1-4.347,5.72292c-.79142.98628-1.68034,1.936-2.58138,2.92228-.87667.99847-1.85084,1.93608-2.81274,2.92236-1.9482,1.936-4.06687,3.83552-6.25868,5.68635-.828.69407-1.66816,1.36375-2.52052,2.02132q-2.15521,1.6986-4.38347,3.26327c-2.3866,1.656-4.78531,3.28756-7.23277,4.74874-2.42309,1.49775-4.87056,2.86149-7.245,4.15219-2.39872,1.26631-4.71226,2.47176-6.95267,3.5068-2.24049,1.05934-4.39573,1.97257-6.40479,2.764a88.62505,88.62505,0,0,1-9.88722,3.28764c-2.43527.64538-3.86.87674-3.86.87674s5.08979-2.67882,12.566-6.7092c1.85084-1.035,3.87208-2.11868,5.97865-3.32421,2.11868-1.19326,4.3226-2.47176,6.5752-3.85989,2.2283-1.40024,4.52965-2.86142,6.78225-4.45652,2.28917-1.55861,4.52966-3.22677,6.73358-4.94361.93753-.71844,1.82645-1.47337,2.73968-2.21611a19.456,19.456,0,0,1-6.149-7.30583c-3.12934-6.44135-2.93455-14.64822.59663-24.37714,5.95419-16.42592,18.61766-24.097,27.409-22.027a10.96743,10.96743,0,0,1,3.25108,1.32718c-.08525-1.76559-.23136-3.54329-.45052-5.29669-1.9117-15.31791,4.68787-41.63105,7.61023-52.2489,3.0441-11.01961.01219-30.28265-1.70472-39.281a.64057.64057,0,0,1-.03649-.13392c-.03656-.12173-.08524-.30441-.1583-.53576-.04875-.21917-.14611-.52358-.25573-.86448-.09743-.341-.19479-.73063-.35309-1.169-.1583-.42614-.29222-.901-.47489-1.41243-.19479-.51146-.37747-1.05941-.58445-1.61948-.414-1.1202-.86455-2.33784-1.33944-3.56767-.487-1.21763-.93753-2.47184-1.42462-3.61642a29.96126,29.96126,0,0,1-1.12021-3.27545c-.14611-.4992-.25573-.96191-.35316-1.38812-.09736-.40177-.1583-.8158-.21916-1.09583-.04868-.30441-.09744-.56014-.13393-.74275-.03656-.17048-.06086-.26792-.06086-.26792a2.446,2.446,0,0,1,.25565.09744A4.12771,4.12771,0,0,1,563.34558,314.48179Zm-85.59994,77.0643c-4.54177,2.618-8.94961,6.13686-14.44117-3.12934C462.854,387.66182,475.1155,391.54609,477.74564,391.54609Zm-82.909-8.7792a24.42582,24.42582,0,1,1,24.42582-24.42582A24.45525,24.45525,0,0,1,394.83662,382.76689Zm108.63772,46.112a25.33807,25.33807,0,0,1-3.21459.57233c-.19479.01219-.37746.03649-.57225.04868-.81587,1.71691-3.22677,6.6727-6.75795,13.15047-10.61777,19.4701-31.30543,52.63855-48.96118,52.63855-.341,0-.68188-.01219-1.01067-.03656a14.44078,14.44078,0,0,1-6.61176-1.64378c-9.89941-5.23583-20.38325-22.52631-16.36506-74.32469.25573-3.44586.59663-7.05009.99847-10.81255-.58444-.3166-1.14458-.6332-1.71691-.97417a23.03988,23.03988,0,0,1-2.99534-2.19174,14.59393,14.59393,0,0,1-1.33945-1.26632,16.36056,16.36056,0,0,1-1.22975-1.36374c-.77931-.9498-1.37594-1.97257-2.05781-2.95886.94972.71837,1.7777,1.60722,2.73968,2.26479a11.5066,11.5066,0,0,0,1.42462.99848,10.12921,10.12921,0,0,0,1.48548.87666,26.44413,26.44413,0,0,0,3.09285,1.449c1.05934.38965,2.14306.73063,3.23888,1.04715,1.1081.24355,2.17955.58452,3.312.74282s2.24041.37746,3.37281.47482l3.40937.2923c1.14458.03649,2.28916.03649,3.43375.07305.57233,0,1.13239.03649,1.70472.0243l1.729-.073,3.43374-.13392,3.44594-.30441c1.15677-.12174,2.30135-.17049,3.44594-.341l3.44586-.46263c1.14458-.18268,2.30135-.25573,3.44594-.48709,2.28916-.40184,4.57833-.80368,6.86749-1.169l1.30289-.207.98628.68187q5.20536,3.5799,10.31336,7.28145c3.42156,2.45966,6.79444,4.98018,10.15513,7.525,1.66816,1.29077,3.34851,2.56927,4.99229,3.89646l1.242.98628.30441.24354v.01219h.01218c0,.01219.01212.01219.02431.01219v.01219h.01218v.01211l.14611.08524.66969.42622a10.34913,10.34913,0,0,0,2.42316.828,27.09474,27.09474,0,0,0,6.03944.51138c2.07-.02437,4.17649-.15829,6.29524-.38965A36.16942,36.16942,0,0,1,503.47434,428.87884Zm24.97377-14.94037A21.29043,21.29043,0,1,1,549.74459,392.642,21.31656,21.31656,0,0,1,528.44811,413.93847Z" transform="translate(-16.41907 -57)"/>
    <path class="cls-9" d="M226.15724,531.09958l3.42157,7.68329,1.4368-5.28451a4.01241,4.01241,0,0,1,7.57367-.48708l.81587,1.93608,1.32719-1.89952a4.05217,4.05217,0,0,1,3.15371-1.7291,4.14267,4.14267,0,0,1,3.26326,1.49775l2.30136,2.84923,3.81121-2.44746c4.74875-12.85826,11.95722-32.52307,17.50964-47.70706-2.60576-5.6011-5.28458-11.62843-7.90253-17.98446l-49.03424,23.062.35309-5.175c1.57073-22.38012,13.07742-63.81638,24.718-101.16133l-6.74569-3.37288a3.93646,3.93646,0,0,1,.10962-7.08666l7.26927-3.3485.85236-6.81875a3.93315,3.93315,0,0,1,5.49156-3.105l.53576.24347c.25566-.79142.51139-1.57073.76712-2.35l-.21924-.97409a3.89181,3.89181,0,0,1,1.04722-3.6651,4.18419,4.18419,0,0,1,.92535-.69407c6.49-19.61613,12.006-35.37237,14.47773-42.3616-57.25329-2.66663-221.464,68.17555-240.861,76.63815,1.49775,30.12435,35.61592,101.14921,44.88213,119.93736,21.85662-28.04225,104.05938-74.142,107.73667-76.18763l5.43062-3.0441-18.776,122.21434,66.6535-39.208Z" transform="translate(-16.41907 -57)"/>
  </g>
</svg>
